<?xml version="1.0" encoding="UTF-8" standalone="no"?>
<!-- Created with Inkscape (http://www.inkscape.org/) -->

<svg
   xmlns:dc="http://purl.org/dc/elements/1.1/"
   xmlns:cc="http://creativecommons.org/ns#"
   xmlns:rdf="http://www.w3.org/1999/02/22-rdf-syntax-ns#"
   xmlns:svg="http://www.w3.org/2000/svg"
   xmlns="http://www.w3.org/2000/svg"
   xmlns:sodipodi="http://sodipodi.sourceforge.net/DTD/sodipodi-0.dtd"
   xmlns:inkscape="http://www.inkscape.org/namespaces/inkscape"
   width="210mm"
   height="297mm"
   viewBox="0 0 744.09448819 1052.3622047"
   id="svg2"
   version="1.1"
   inkscape:version="0.91 r13725"
   sodipodi:docname="hipster_sil.svg">
  <defs
     id="defs4" />
  <sodipodi:namedview
     id="base"
     pagecolor="#ffffff"
     bordercolor="#666666"
     borderopacity="1.0"
     inkscape:pageopacity="0.0"
     inkscape:pageshadow="2"
     inkscape:zoom="0.35"
     inkscape:cx="-46.428571"
     inkscape:cy="520"
     inkscape:document-units="px"
     inkscape:current-layer="layer1"
     showgrid="false"
     inkscape:window-width="1280"
     inkscape:window-height="697"
     inkscape:window-x="-8"
     inkscape:window-y="-8"
     inkscape:window-maximized="1" />
  <metadata
     id="metadata7">
    <rdf:RDF>
      <cc:Work
         rdf:about="">
        <dc:format>image/svg+xml</dc:format>
        <dc:type
           rdf:resource="http://purl.org/dc/dcmitype/StillImage" />
        <dc:title></dc:title>
      </cc:Work>
    </rdf:RDF>
  </metadata>
  <g
     inkscape:label="Layer 1"
     inkscape:groupmode="layer"
     id="layer1">
    <path
       style="fill:#d55400;fill-opacity:1"
       d="m 651.11652,886.10918 c -2.07307,-0.53395 -4.56642,-2.17683 -8.0874,-5.32885 -0.51324,-0.45946 -1.01327,-0.83538 -1.11117,-0.83538 -0.30949,0 -0.19281,0.81049 0.19675,1.36666 0.56456,0.80602 0.28882,0.81522 -0.89675,0.0299 -1.74336,-1.15475 -3.61517,-3.93338 -4.59986,-6.82828 -0.47967,-1.41021 -0.85372,-1.33321 -0.80698,0.16612 l 0.0364,1.16752 -0.5387,-0.62628 c -0.2963,-0.34446 -0.75872,-1.29092 -1.02761,-2.10325 -0.51081,-1.54316 -1.09521,-5.97465 -0.89092,-6.75585 0.26745,-1.02274 -0.83098,-0.21539 -1.44844,1.0646 l -0.44968,0.93218 -0.17038,-1.13616 c -0.32839,-2.18985 0.60934,-4.5887 2.5539,-6.53326 0.4655,-0.4655 0.84636,-0.89503 0.84636,-0.95452 0,-0.0595 -0.6053,-0.28369 -1.3451,-0.49821 -3.3272,-0.96481 -5.92642,-3.08559 -6.72373,-5.48609 -1.14814,-3.45671 0.0929,-7.19535 2.80539,-8.45119 1.1106,-0.51419 1.85481,-0.53934 2.80717,-0.0949 l 0.70179,0.32753 -0.95668,-0.12805 c -3.04931,-0.40816 -5.68971,3.76355 -4.06683,6.42539 1.57386,2.58144 5.88557,1.57366 10.75481,-2.51373 4.0534,-3.40256 6.1972,-4.31413 8.94432,-3.80325 2.48659,0.46242 4.02819,1.8054 4.7512,4.13905 0.11645,0.37586 0.23145,0.24217 0.58481,-0.67989 0.79228,-2.0674 2.44659,-3.26062 4.92223,-3.55033 2.57176,-0.30095 4.15685,0.50926 8.51821,4.35398 2.48041,2.18659 4.79812,3.34837 6.87734,3.44735 1.79454,0.0854 2.46646,-0.19062 3.23314,-1.32829 1.09901,-1.63083 0.41867,-4.33461 -1.42761,-5.67358 -0.83132,-0.60289 -1.13198,-0.68807 -2.19645,-0.62228 -1.06842,0.066 -1.17788,0.0347 -0.81876,-0.23461 0.70756,-0.53055 2.9108,-0.24352 3.89541,0.50747 2.3962,1.82768 3.07606,5.77141 1.54143,8.94154 -1.05349,2.1762 -3.9384,4.18806 -6.85255,4.77879 -1.13555,0.23019 -1.33339,0.34098 -1.18824,0.66538 0.43782,0.97847 1.45721,4.21682 1.57017,4.98802 l 0.12537,0.85594 -0.66853,-0.38368 c -0.36768,-0.21102 -0.72409,-0.32811 -0.79201,-0.26019 -0.0679,0.0679 0.0305,0.63533 0.21883,1.26092 0.47445,1.5765 0.42786,3.16321 -0.14263,4.85667 -0.5425,1.6104 -1.15257,2.66942 -1.15257,2.00076 0,-0.49392 -0.48801,-1.58361 -0.7092,-1.58361 -0.0914,0 -0.23518,0.51962 -0.31942,1.1547 -0.20734,1.56303 -1.73357,4.52809 -3.13844,6.09715 -1.38447,1.54629 -3.50001,3.14734 -3.22762,2.44267 0.0966,-0.24984 0.23514,-0.74934 0.30791,-1.10999 0.12562,-0.62261 0.0982,-0.64756 -0.54273,-0.49403 -3.63556,0.87088 -8.3418,4.0294 -8.55294,5.74017 l -0.0757,0.6136 -1.26727,-0.3264 z m 4.55782,-25.35846 c 1.50055,-0.26578 4.3127,-1.10989 4.61651,-1.38573 0.10305,-0.0936 -0.71517,-0.60316 -1.81825,-1.13246 -2.17727,-1.04473 -4.19666,-2.74338 -5.28946,-4.44933 l -0.64968,-1.01421 -0.35321,0.68303 c -1.21095,2.34173 -3.75669,4.53753 -6.22326,5.36782 l -1.52684,0.51395 0.93572,0.4017 c 2.67312,1.14753 7.10003,1.58352 10.30847,1.01523 z m -16.62459,-18.48523 c -1.75415,-0.22428 -3.44563,-0.79313 -4.56907,-1.53659 -1.24502,-0.82391 -2.37329,-3.06864 -3.39341,-6.7513 -0.21384,-0.77197 -0.677,-1.77203 -1.02925,-2.22234 -0.99379,-1.27046 -1.18426,-1.75175 -1.18426,-2.99244 l 0,-1.15176 3.21655,-0.65299 c 5.51413,-1.11941 8.74507,-1.06273 15.7255,0.2759 3.95409,0.75826 6.81799,0.67185 12.3676,-0.37318 4.09407,-0.77095 7.07718,-0.91526 9.86214,-0.4771 2.19255,0.34495 5.68222,1.18881 6.02371,1.45664 0.16445,0.12897 0.29241,0.74182 0.29241,1.40046 0,0.99624 -0.11523,1.29869 -0.77159,2.02521 -0.59991,0.66402 -0.91799,1.39904 -1.42955,3.30337 -0.36188,1.34713 -0.90127,2.92971 -1.19865,3.51686 -0.58876,1.16245 -1.97281,2.53422 -3.19477,3.16642 -2.6968,1.39523 -7.12551,1.33369 -10.01249,-0.13914 -1.96317,-1.00153 -3.6474,-3.32017 -4.80883,-6.62019 -0.69806,-1.98342 -1.19186,-2.50413 -2.37473,-2.50413 -0.91644,0 -1.25985,0.46321 -1.82104,2.45627 -0.80767,2.86848 -3.14812,5.93761 -5.33968,7.00214 -0.66777,0.32436 -1.84573,0.65148 -2.61771,0.72693 -0.77197,0.0755 -1.61412,0.16716 -1.87144,0.2038 -0.25732,0.0366 -1.09947,-0.0141 -1.87144,-0.11284 z m 5.41371,-2.32189 c 1.78862,-0.88019 2.96583,-2.16254 3.9528,-4.30587 1.53876,-3.34162 1.59493,-4.75333 0.23656,-5.946 -1.80472,-1.58457 -5.53252,-2.31521 -9.72004,-1.90512 -5.53913,0.54246 -6.70755,1.58776 -6.08942,5.44778 0.93144,5.81665 3.13058,7.80624 8.31176,7.51978 1.47183,-0.0814 2.17827,-0.25446 3.30834,-0.81057 z m 22.53257,0.68608 c 3.24842,-0.52703 4.60676,-2.09973 5.48436,-6.34981 1.01457,-4.91341 0.0827,-5.92722 -5.97881,-6.50477 -4.2452,-0.40449 -8.12474,0.40364 -9.75862,2.03276 -0.75877,0.75657 -0.78383,0.83936 -0.69174,2.28566 0.0767,1.20513 0.31483,1.94236 1.20899,3.74355 1.488,2.99743 2.96469,4.17582 6.11831,4.88238 0.84739,0.18986 2.08301,0.1592 3.61751,-0.0898 z"
       id="path4147"
       inkscape:connector-curvature="0" />
  </g>
</svg>
